<?xml version="1.0" standalone="no"?>
<!DOCTYPE svg PUBLIC "-//W3C//DTD SVG 20010904//EN"
 "http://www.w3.org/TR/2001/REC-SVG-20010904/DTD/svg10.dtd">
<svg version="1.0" xmlns="http://www.w3.org/2000/svg"
 width="1200.000000pt" height="1200.000000pt" viewBox="0 0 1200.000000 1200.000000"
 preserveAspectRatio="xMidYMid meet">
<metadata>
Created by potrace 1.16, written by Peter Selinger 2001-2019
</metadata>
<g transform="translate(0.000000,1200.000000) scale(0.100000,-0.100000)"
fill="#666" stroke="none">
<path d="M7755 8876 c-136 -27 -215 -67 -292 -149 -84 -88 -129 -184 -159
-335 -35 -183 4 -415 85 -499 31 -32 47 -29 76 17 32 51 55 60 185 71 146 13
193 29 288 98 133 96 183 92 303 -24 62 -60 70 -65 112 -65 58 0 88 23 89 70
0 19 0 71 -2 116 -2 76 9 124 29 124 17 0 21 -84 10 -187 -8 -80 -8 -111 1
-133 26 -62 -27 -262 -114 -433 -72 -142 -117 -201 -180 -237 -86 -50 -147
-36 -261 59 -33 28 -96 74 -141 104 -79 54 -127 100 -146 143 -8 17 -5 26 16
47 43 43 34 71 -52 160 -57 58 -92 73 -92 39 0 -10 16 -58 36 -106 19 -49 32
-92 27 -96 -4 -4 -33 -15 -63 -25 -136 -44 -198 -96 -226 -191 -19 -66 -17
-195 9 -514 9 -107 20 -277 26 -378 7 -148 13 -190 29 -222 l19 -40 -36 -6
c-95 -16 -147 -45 -238 -135 -39 -39 -76 -88 -94 -125 -31 -63 -73 -241 -85
-366 -6 -64 -5 -70 14 -74 18 -5 19 -12 15 -64 -11 -121 31 -374 86 -521 12
-30 37 -74 57 -97 30 -36 33 -42 16 -42 -10 0 -47 -18 -81 -40 -33 -22 -78
-48 -99 -59 -38 -19 -272 -84 -279 -77 -2 2 16 80 41 172 128 481 214 1003
203 1241 -4 96 -8 120 -31 167 -29 60 -66 93 -115 102 -47 10 -79 -32 -125
-162 -74 -208 -145 -335 -162 -291 -11 29 27 141 98 291 60 125 72 160 72 203
1 44 -3 56 -28 82 -16 17 -38 33 -48 37 -10 3 -27 22 -38 42 -10 20 -51 71
-90 112 -85 90 -115 148 -164 325 -65 229 -115 304 -251 370 -177 87 -380 81
-522 -15 -32 -22 -49 -28 -56 -21 -16 16 -63 13 -96 -4 -45 -23 -108 -102
-131 -164 -39 -103 -43 -149 -26 -330 14 -148 14 -217 1 -286 -3 -15 -13 -20
-39 -22 -73 -3 -110 -54 -122 -165 l-7 -66 -45 20 c-55 25 -141 20 -181 -10
-24 -17 -53 -64 -65 -105 -5 -16 -10 -15 -57 9 -93 47 -228 75 -387 81 -162 7
-224 -3 -313 -48 -106 -53 -181 -150 -214 -276 -22 -82 -21 -535 0 -613 8 -30
22 -91 30 -135 47 -254 143 -396 368 -545 l88 -58 -73 -43 c-204 -120 -245
-131 -277 -77 -47 76 -121 429 -121 575 0 151 -7 158 -93 94 -29 -22 -130 -80
-225 -130 -202 -105 -276 -155 -391 -266 -131 -125 -195 -226 -244 -380 -37
-116 -47 -188 -57 -371 -7 -143 -11 -170 -33 -218 -38 -81 -74 -130 -178 -236
-124 -125 -163 -175 -195 -243 -35 -78 -64 -224 -64 -328 0 -100 19 -139 69
-139 41 0 67 36 86 114 44 194 131 282 295 301 l45 5 -39 -10 c-66 -17 -155
-71 -201 -122 -73 -81 -83 -153 -25 -183 67 -35 138 -12 238 77 96 86 152 109
285 116 137 7 239 -11 299 -54 96 -67 192 -104 276 -104 l44 0 -45 -50 c-92
-102 -112 -176 -72 -271 43 -103 43 -106 -2 -113 -64 -11 -830 13 -913 28
-136 25 -219 75 -236 142 -4 14 -18 30 -31 35 -14 5 -498 9 -1189 9 -1028 0
-1164 -2 -1164 -15 0 -13 135 -15 1153 -15 633 0 1162 -3 1175 -6 12 -4 25
-17 28 -29 8 -32 72 -91 124 -114 101 -44 176 -51 626 -63 465 -12 485 -10
492 39 l3 21 46 -20 c37 -16 60 -19 116 -15 77 5 109 23 142 77 11 18 32 46
47 61 24 27 32 29 97 29 94 0 119 13 147 76 12 29 35 61 51 71 25 18 32 19 58
7 37 -16 163 -18 202 -3 15 6 99 11 186 12 156 2 159 2 179 27 14 17 18 33 14
52 -5 25 -3 27 12 20 9 -5 60 -10 112 -10 90 0 105 3 275 59 99 33 188 64 198
69 15 9 17 5 17 -27 0 -60 25 -150 53 -192 30 -45 88 -82 162 -104 42 -12 105
-13 390 -6 187 4 471 8 630 9 345 2 463 10 480 33 20 27 82 21 273 -29 157
-40 193 -46 318 -51 l142 -6 -6 -83 c-6 -106 12 -158 73 -212 75 -66 240 -101
318 -69 33 14 37 20 37 51 0 29 -10 46 -59 98 -32 35 -66 77 -75 95 -22 44
-21 115 2 136 34 31 44 21 38 -36 -7 -65 10 -116 46 -136 25 -14 31 -14 72 7
25 12 92 57 149 99 56 43 124 89 149 103 46 24 47 24 85 6 20 -10 65 -40 99
-67 77 -61 150 -95 234 -108 114 -18 428 -41 650 -47 246 -8 336 2 420 44 47
23 63 39 110 111 31 46 68 90 85 98 52 28 185 12 390 -46 239 -68 334 -84 465
-79 153 7 211 39 179 100 -6 13 -91 102 -189 198 -117 116 -194 200 -225 248
-157 242 -305 627 -357 927 -33 195 -14 463 36 504 12 10 18 8 30 -11 41 -64
99 -267 166 -582 52 -248 70 -301 142 -404 147 -214 215 -332 259 -451 19 -50
41 -83 102 -148 42 -47 77 -90 77 -98 0 -7 -11 -27 -25 -43 -52 -62 -21 -102
56 -72 l47 17 21 -49 c27 -65 73 -86 203 -93 51 -3 128 -7 171 -10 70 -4 77
-3 77 14 0 17 -14 19 -164 23 -197 6 -229 17 -263 89 -26 56 -42 63 -94 43
-51 -21 -58 -13 -25 26 41 50 35 72 -47 158 -45 49 -81 97 -96 132 -65 151
-121 254 -218 398 -58 86 -114 175 -123 198 -18 40 -26 77 -95 391 -71 327
-132 497 -181 509 -33 9 -52 -10 -74 -75 l-17 -52 -6 133 c-10 239 -49 332
-206 489 -158 157 -242 194 -520 225 -80 9 -148 18 -150 20 -2 2 11 17 28 35
88 88 94 166 55 739 -71 1050 -208 1454 -549 1616 -81 39 -343 116 -474 140
-109 20 -169 13 -204 -22 -40 -40 -49 -16 -53 154 -7 301 -67 485 -195 595
-161 139 -380 201 -574 163z m267 -37 c29 -6 90 -29 136 -50 162 -78 274 -217
302 -377 l13 -70 -27 -24 c-35 -30 -47 -84 -39 -185 7 -95 -1 -113 -53 -113
-27 0 -46 13 -108 69 -123 114 -182 117 -326 16 -43 -30 -90 -59 -106 -66 -16
-6 -86 -17 -156 -24 -147 -16 -191 -33 -217 -83 l-18 -36 -26 40 c-71 109 -95
294 -59 466 49 236 172 379 372 432 66 18 238 20 312 5z m863 -909 c329 -78
469 -147 572 -285 164 -218 244 -548 303 -1240 32 -385 41 -729 21 -803 -15
-52 -84 -132 -115 -132 -65 0 -204 126 -340 309 -103 139 -164 251 -241 446
-38 94 -82 193 -100 220 -114 178 -337 270 -658 270 -86 0 -157 0 -157 1 0 1
5 14 10 31 14 40 73 63 100 38 47 -43 177 -58 210 -25 35 35 23 85 -70 290
-29 63 -56 126 -61 139 l-10 24 28 -19 c34 -22 71 -40 101 -49 17 -5 30 1 56
27 84 84 161 442 126 587 -7 29 -28 76 -47 104 -40 59 -37 75 18 94 43 15 103
9 254 -27z m-279 -116 c50 -102 41 -269 -26 -476 -37 -115 -62 -158 -92 -158
-49 0 -178 96 -178 131 0 16 21 51 56 94 118 146 173 263 189 403 4 34 11 62
15 62 5 0 21 -25 36 -56z m-1006 -192 c0 -29 70 -106 138 -153 42 -29 113 -82
156 -117 44 -35 99 -73 124 -83 35 -15 43 -23 36 -37 -4 -9 -19 -49 -32 -89
-20 -59 -23 -75 -12 -88 7 -8 15 -15 19 -15 4 0 38 21 76 46 l70 45 13 -43
c13 -44 11 -105 -9 -224 l-11 -61 -134 -26 c-259 -51 -348 -107 -522 -327 -70
-89 -108 -129 -124 -130 -11 0 -27 58 -33 127 -3 37 -10 162 -15 276 -5 114
-17 281 -26 370 -21 209 -16 329 17 387 31 55 56 73 160 116 86 35 109 40 109
26z m-1706 -238 c79 -19 169 -69 212 -117 48 -53 76 -116 124 -283 56 -190 74
-225 168 -327 45 -49 82 -92 82 -95 0 -4 -17 -6 -37 -4 -24 2 -52 -4 -75 -16
-42 -22 -39 -24 -53 48 -30 150 -164 218 -375 190 -47 -6 -110 -18 -140 -27
-30 -8 -89 -16 -130 -17 -121 -2 -158 -38 -171 -164 -4 -42 -15 -102 -24 -132
-8 -30 -15 -79 -15 -110 l-1 -55 -32 40 c-60 75 -169 183 -196 195 l-27 11 9
67 c6 45 5 117 -3 222 -17 204 -11 288 24 363 46 97 123 162 170 144 12 -5 11
-12 -5 -44 -23 -46 -25 -116 -3 -137 20 -21 30 -20 54 4 31 31 37 84 19 159
-5 20 131 89 196 101 60 10 148 4 229 -16z m2388 -307 c-3 -114 -8 -207 -12
-207 -10 0 -40 168 -40 226 0 32 -6 55 -18 68 -10 12 -25 38 -35 58 l-16 37
33 16 c19 9 44 27 57 41 l24 26 6 -30 c3 -16 4 -122 1 -235z m193 -245 c8 -40
-7 -62 -44 -62 -35 0 -128 28 -136 40 -3 5 1 31 10 57 12 36 15 65 9 120 -3
40 -3 103 1 139 l7 66 73 -163 c40 -90 76 -179 80 -197z m-334 -100 c-11 -26
-22 -32 -114 -56 -231 -60 -388 -169 -463 -322 l-37 -74 -76 0 -76 0 35 18
c21 10 68 59 120 124 47 59 101 124 120 144 46 48 139 108 207 134 53 20 284
70 292 64 2 -2 -2 -16 -8 -32z m-1959 -22 c20 -6 48 -24 62 -41 22 -26 26 -40
26 -95 0 -39 6 -74 14 -87 26 -40 -49 -281 -108 -345 -68 -76 -197 -67 -381
25 -132 66 -189 120 -234 223 -44 102 -34 156 46 231 69 67 107 79 219 73 63
-3 130 0 184 9 108 19 127 19 172 7z m2276 -30 c179 -20 336 -80 429 -164 61
-55 95 -118 179 -329 36 -89 90 -204 120 -255 119 -199 313 -424 402 -467 23
-11 42 -23 42 -26 0 -10 -87 -68 -94 -62 -3 3 -6 19 -6 35 0 16 -7 42 -15 57
-40 78 -131 36 -186 -84 -31 -70 -72 -229 -94 -369 -9 -55 -19 -105 -22 -110
-16 -27 -88 -116 -94 -116 -16 0 -23 103 -24 375 -1 266 -3 297 -23 370 -82
298 -297 526 -607 646 -229 89 -503 91 -651 4 -61 -36 -121 -109 -141 -171 -9
-30 -20 -51 -23 -47 -4 5 -13 29 -20 56 -14 52 -63 137 -80 137 -28 0 -2 95
30 105 11 4 66 47 122 95 76 67 132 105 222 152 68 36 143 84 173 112 49 44
60 50 116 56 93 11 153 11 245 0z m-393 -46 c-16 -14 -66 -43 -110 -66 -115
-58 -199 -115 -289 -197 -43 -39 -83 -71 -88 -71 -20 0 50 108 107 165 71 71
180 132 306 169 105 31 111 31 74 0z m-2905 -146 c0 -7 -14 -58 -30 -112 -17
-55 -30 -110 -30 -122 0 -33 -15 -37 -34 -9 -11 17 -16 47 -16 100 0 75 8 103
38 138 17 20 72 23 72 5z m1428 -39 c19 -37 7 -81 -69 -241 -101 -212 -123
-325 -65 -336 46 -9 105 84 177 282 45 125 75 179 101 184 24 5 79 -48 100
-96 68 -152 -14 -768 -188 -1415 -42 -158 -47 -170 -83 -202 -71 -64 -120
-209 -128 -375 -4 -87 -2 -115 14 -162 11 -32 19 -58 18 -58 -1 0 -17 22 -36
49 -34 51 -51 61 -106 61 -58 0 -63 6 -63 74 0 33 7 106 15 161 8 55 18 181
21 280 6 173 8 186 51 340 24 88 71 228 103 310 93 235 118 363 87 436 -32 78
-97 49 -97 -43 0 -169 -47 -444 -99 -578 -16 -41 -36 -109 -45 -150 -9 -41
-30 -131 -47 -200 -16 -69 -43 -192 -60 -274 -31 -155 -56 -221 -86 -230 -41
-13 -395 -46 -489 -46 -161 0 -171 8 -204 165 -51 236 -49 301 12 371 58 66
131 90 363 119 157 19 230 37 311 76 108 51 157 135 102 173 -62 44 -221 7
-498 -114 -169 -74 -216 -90 -271 -90 -52 0 -137 27 -191 62 -64 41 -84 86
-98 223 -12 118 -11 124 33 270 14 44 28 114 32 155 9 88 7 85 156 237 60 62
116 128 124 147 8 20 15 59 15 88 l0 52 61 -90 c111 -163 187 -236 272 -264
61 -19 124 18 242 142 154 162 226 292 250 451 6 37 11 47 22 43 25 -10 69
-49 93 -83 12 -18 29 -33 37 -33 19 0 41 56 49 125 7 54 8 55 28 42 12 -8 27
-25 34 -38z m-1342 13 c47 -35 109 -103 173 -192 44 -61 46 -68 49 -140 4 -96
-2 -106 -145 -255 l-113 -116 0 38 c0 76 -30 235 -57 301 -19 46 -27 82 -25
116 1 49 62 276 73 276 3 0 24 -13 45 -28z m298 -112 c11 -25 47 -72 81 -105
124 -124 390 -217 499 -175 14 5 26 7 26 5 0 -3 -36 -45 -79 -94 -91 -100
-159 -151 -206 -151 -71 0 -171 93 -294 274 l-81 119 0 71 c0 39 3 89 7 111 6
38 7 38 17 15 5 -14 19 -45 30 -70z m-589 -59 c22 -10 45 -24 52 -32 16 -20
65 -293 65 -364 0 -42 -6 -74 -20 -100 -24 -49 -87 -115 -108 -115 -22 0 -74
55 -74 78 0 11 -3 27 -6 36 -5 13 1 16 25 16 55 0 100 26 117 66 19 46 10 58
-62 72 -94 19 -120 37 -149 101 -15 31 -33 70 -42 86 -26 52 4 129 63 160 39
20 90 19 139 -4z m-570 -31 c109 -16 184 -37 255 -73 l65 -32 5 -63 c3 -34 4
-62 4 -62 -1 0 -21 11 -45 24 -159 88 -440 78 -653 -24 -114 -54 -208 -157
-241 -263 -14 -42 -14 -42 -14 45 -1 48 4 111 10 140 32 148 140 263 288 304
56 15 231 17 326 4z m3131 -35 c-3 -11 -6 -24 -6 -30 0 -6 -35 -10 -83 -11
-92 -1 -174 -25 -241 -71 -87 -60 -161 -199 -211 -396 -43 -172 -43 -97 1 121
12 63 35 139 50 170 35 72 142 180 214 216 52 25 62 27 168 24 108 -2 113 -3
108 -23z m745 -20 c326 -57 599 -258 728 -537 68 -146 76 -197 73 -488 -1
-166 3 -286 11 -342 l13 -88 -34 -32 c-54 -52 -85 -113 -92 -182 l-6 -61 -14
63 c-8 35 -19 62 -25 60 -11 -3 -12 -43 -2 -143 l7 -70 -21 43 c-11 24 -25 70
-32 103 -14 76 -2 129 62 274 62 140 71 173 71 266 0 151 -68 325 -194 497
-77 106 -98 149 -116 242 -13 69 -40 114 -82 140 -48 29 -91 26 -130 -9 -32
-28 -33 -32 -38 -128 -5 -96 -6 -98 -30 -101 -26 -3 -34 2 -170 108 -122 94
-312 155 -462 148 -100 -5 -98 -8 -55 80 67 138 285 202 538 157z m-3140 -133
c24 -69 31 -104 30 -168 0 -78 -18 -174 -47 -242 -11 -28 -11 -34 1 -38 7 -3
26 3 41 12 l27 18 -6 -63 c-4 -35 -21 -108 -39 -163 l-31 -101 10 -116 c7 -64
19 -136 28 -159 44 -110 233 -188 372 -153 26 7 118 43 203 80 206 91 301 122
385 128 56 4 73 2 84 -10 21 -26 3 -56 -60 -97 -71 -46 -169 -73 -344 -95
-179 -22 -254 -41 -316 -78 -81 -48 -119 -117 -119 -215 0 -61 56 -328 77
-362 18 -32 44 -48 94 -60 29 -7 25 -8 -25 -7 l-59 2 -48 90 c-60 112 -86 188
-142 430 -57 239 -77 294 -126 338 -48 43 -136 77 -202 77 -48 0 -51 1 -46 23
3 12 9 138 13 279 l7 257 23 -16 c47 -30 117 15 170 109 26 47 29 62 28 133
-1 44 -11 124 -23 179 -12 54 -21 103 -21 109 0 26 34 -40 61 -121z m2363 82
c12 -5 16 -21 16 -66 0 -96 27 -136 111 -161 19 -6 39 -77 40 -144 0 -26 8
-79 19 -118 10 -38 17 -71 16 -73 -2 -1 -47 32 -102 74 -54 42 -133 93 -174
113 -65 31 -85 36 -145 36 -81 -1 -120 -17 -206 -89 -30 -25 -56 -41 -57 -35
-6 15 45 165 80 238 36 75 94 142 154 177 63 37 205 64 248 48z m-2864 -111
c92 -44 105 -58 138 -145 l29 -77 -56 -34 c-94 -58 -118 -67 -171 -67 -58 0
-80 10 -197 88 -69 45 -93 56 -136 60 -46 3 -55 1 -77 -22 -37 -41 -31 -107
24 -269 25 -74 46 -141 46 -149 0 -8 -20 -28 -44 -43 -62 -39 -70 -63 -51
-155 18 -86 14 -120 -15 -120 -21 0 -24 8 -39 105 -5 33 -14 72 -19 86 -16 40
-80 98 -124 111 -55 16 -88 2 -114 -49 l-21 -42 -7 61 c-17 169 -1 351 40 431
48 93 137 167 259 213 113 42 187 53 335 51 129 -2 138 -4 200 -34z m200 -83
c16 -11 58 -28 94 -37 64 -15 74 -25 58 -50 -10 -16 -57 -33 -91 -33 -23 0
-31 7 -42 31 -7 18 -30 55 -51 83 -21 28 -38 57 -38 66 0 8 -3 26 -6 40 -3 14
7 1 21 -27 15 -29 39 -62 55 -73z m3110 -35 c75 -18 179 -57 230 -87 19 -12
67 -47 105 -78 87 -70 105 -80 149 -80 48 0 58 23 60 133 2 80 4 91 25 108 27
22 50 24 86 7 36 -16 62 -64 80 -147 18 -89 39 -129 121 -239 111 -148 170
-292 181 -439 7 -90 -4 -145 -44 -235 -23 -52 -43 -74 -43 -49 0 5 -53 48
-117 95 -80 58 -126 86 -145 86 -19 0 -46 -17 -90 -56 -109 -98 -184 -123
-265 -89 -54 23 -67 37 -154 167 -88 131 -108 146 -207 158 -35 5 -65 10 -67
12 -3 2 2 26 10 53 8 26 15 70 15 97 0 43 -5 54 -36 86 -39 40 -84 120 -84
149 0 10 -13 74 -30 141 -16 68 -30 143 -30 167 0 42 1 44 33 48 73 9 156 6
217 -8z m-3566 -154 c166 -110 228 -113 376 -17 30 20 58 36 62 36 15 0 38
-61 44 -117 10 -99 -13 -567 -28 -572 -30 -10 -122 -110 -153 -166 -18 -33
-50 -108 -70 -167 -21 -60 -42 -108 -48 -108 -16 0 -282 155 -357 208 -81 58
-237 213 -313 313 -55 73 -57 78 -51 119 10 60 41 94 80 86 77 -17 126 -92
139 -210 11 -96 70 -133 112 -69 12 17 14 36 9 71 -4 26 -10 70 -13 99 l-5 52
51 32 c65 40 65 49 6 222 -46 137 -57 220 -32 246 26 27 93 7 191 -58z m3036
-21 c33 -17 110 -68 172 -115 62 -47 117 -85 123 -85 6 0 25 -26 42 -58 l32
-58 -20 -42 c-12 -24 -33 -112 -49 -206 -30 -180 -50 -229 -110 -277 -69 -56
-281 -88 -381 -58 -58 18 -105 63 -139 133 -60 127 -105 393 -93 550 5 70 6
72 62 129 126 131 227 155 361 87z m2084 -292 c9 -13 16 -43 16 -70 0 -42 -6
-55 -44 -103 -25 -30 -77 -109 -116 -176 -40 -66 -73 -119 -75 -117 -2 2 5 48
15 101 41 209 84 325 136 366 34 27 49 26 68 -1z m379 -53 c243 -26 322 -54
451 -161 126 -104 201 -214 233 -341 23 -93 23 -361 -1 -548 -60 -478 -253
-1292 -368 -1545 -57 -128 -117 -157 -293 -147 -128 7 -198 24 -190 45 36 95
20 304 -31 403 -12 24 -12 27 6 32 11 3 27 21 36 41 15 30 16 43 6 83 -6 27
-14 56 -17 65 -7 16 -5 17 20 4 26 -14 30 -13 62 12 46 37 56 78 95 372 27
207 31 269 28 400 -8 340 -6 410 18 478 13 35 45 104 73 152 63 113 89 188 89
260 0 119 -65 134 -128 30 -60 -101 -130 -361 -166 -615 -31 -221 -38 -347
-37 -678 1 -197 -3 -336 -8 -333 -30 19 -185 462 -258 736 -31 116 -36 150
-36 245 0 65 7 140 17 183 20 90 21 171 2 198 -8 11 -33 29 -56 39 l-41 18 51
52 c35 36 56 67 66 101 19 62 44 224 44 286 0 48 0 48 73 102 54 42 78 54 97
51 14 -3 87 -12 163 -20z m-2063 -121 c0 -77 -2 -85 -50 -180 -28 -54 -48 -88
-45 -74 3 14 16 92 30 173 14 81 30 157 36 169 18 34 29 2 29 -88z m1686 -133
c-25 -166 -38 -200 -96 -254 -27 -25 -50 -53 -50 -62 0 -9 14 -24 31 -33 69
-38 79 -50 79 -100 -1 -26 -7 -76 -15 -112 -43 -192 -29 -307 80 -659 95 -310
159 -476 206 -543 20 -27 20 -29 3 -19 -69 40 -135 145 -272 431 -82 170 -139
329 -178 495 -27 114 -29 132 -29 360 l0 240 41 65 c23 36 66 108 97 161 62
106 109 168 115 150 2 -6 -4 -60 -12 -120z m-5482 -158 c105 -109 210 -186
396 -290 74 -42 136 -78 138 -79 2 -1 -9 -30 -24 -65 -14 -35 -28 -89 -31
-119 -5 -59 28 -286 97 -659 42 -226 51 -322 27 -302 -10 8 -25 7 -58 -3 -87
-27 -146 -33 -180 -19 -44 18 -88 16 -133 -6 -34 -18 -38 -18 -33 -3 131 443
159 780 86 1042 -30 109 -27 114 45 84 120 -51 152 -11 64 81 -54 55 -90 69
-114 45 -7 -7 -22 0 -46 23 -20 19 -67 56 -105 82 -145 104 -216 179 -274 293
-41 81 -35 95 14 37 23 -27 82 -92 131 -142z m-274 77 c0 -146 69 -480 120
-580 40 -79 90 -73 270 30 57 33 107 57 110 53 20 -22 53 -189 59 -295 14
-257 -15 -478 -100 -763 -23 -77 -42 -155 -43 -173 -1 -32 -2 -32 -41 -28 -22
3 -72 8 -112 11 l-72 6 -42 -38 c-23 -21 -75 -82 -116 -136 -94 -123 -106
-132 -184 -123 -72 7 -133 32 -214 88 l-60 41 0 176 c0 208 2 216 122 366 80
102 112 163 113 210 0 37 -25 75 -49 75 -52 0 -150 -150 -208 -317 -22 -66
-27 -101 -32 -228 l-6 -150 -47 -3 c-26 -2 -83 4 -128 12 -156 30 -360 15
-474 -34 -90 -38 -151 -128 -188 -274 -22 -89 -32 -106 -59 -106 -33 0 -42 37
-36 144 7 119 36 237 74 309 16 28 80 106 143 172 143 149 172 186 211 269 29
61 32 78 40 224 11 194 24 284 56 381 84 260 272 448 631 631 78 40 166 90
195 111 29 20 55 38 60 38 4 1 7 -44 7 -99z m4207 74 c46 -7 84 -43 143 -137
29 -45 66 -97 83 -114 17 -18 26 -33 20 -33 -23 0 -219 73 -284 106 -121 60
-133 46 -83 -93 42 -116 53 -211 31 -264 -12 -30 -24 -39 -75 -57 -105 -39
-110 -74 -15 -112 35 -14 70 -32 78 -41 18 -18 19 -14 -79 -294 -72 -204 -85
-233 -107 -240 -27 -9 -181 24 -201 43 -25 22 -23 52 17 203 19 74 56 216 80
317 74 299 110 405 193 575 l77 157 45 -5 c25 -3 59 -8 77 -11z m-2957 -64
c20 -5 56 -23 82 -39 63 -40 86 -94 142 -333 69 -289 92 -359 156 -468 16 -28
30 -52 30 -53 0 -1 -76 -1 -168 1 -153 3 -170 2 -192 -16 -21 -17 -22 -22 -12
-51 6 -18 104 -171 217 -340 l205 -307 0 -84 c-1 -88 -16 -148 -45 -180 -34
-38 -367 -192 -382 -176 -2 2 -9 35 -15 73 -6 37 -21 106 -34 153 -35 124 -35
126 33 145 69 20 125 72 143 131 16 55 -1 91 -58 122 -23 13 -44 33 -47 45 -3
12 6 63 21 112 35 117 40 158 21 174 -27 22 -53 -4 -87 -85 -32 -77 -70 -211
-70 -247 0 -36 33 -89 72 -115 l39 -25 -44 -28 c-24 -15 -53 -38 -64 -52 -14
-18 -33 -26 -73 -32 -30 -4 -96 -20 -146 -36 -50 -16 -96 -29 -101 -29 -11 0
17 90 34 112 23 28 22 60 -2 199 -89 501 -126 738 -121 784 5 56 54 185 70
185 60 0 152 64 196 135 31 51 58 138 70 228 6 45 13 88 15 95 5 14 66 16 115
2z m5066 -26 c18 -71 -5 -144 -105 -332 -77 -145 -84 -189 -76 -487 7 -243 6
-257 -25 -504 -50 -398 -58 -399 -59 -6 0 182 4 384 9 450 34 405 126 788 213
883 26 29 35 28 43 -4z m-5220 -11 c-2 -10 -7 -44 -11 -76 -17 -153 -98 -279
-196 -307 -28 -8 -30 -7 -23 13 29 96 79 219 106 264 49 81 139 157 124 106z
m3304 -200 c91 -30 183 -65 206 -78 67 -39 108 -105 183 -292 128 -322 171
-535 171 -845 l0 -141 -45 -52 c-57 -68 -89 -81 -152 -66 -57 15 -199 88 -254
132 -48 38 -85 104 -70 123 7 8 11 65 10 142 0 118 2 138 31 229 17 55 34 119
37 142 5 37 2 45 -25 72 -57 57 -133 29 -153 -56 -9 -43 19 -382 41 -476 5
-23 7 -44 4 -46 -13 -13 -115 29 -277 113 -112 59 -173 95 -163 99 23 9 40 49
112 255 100 284 100 286 81 316 -10 15 -40 33 -77 47 -33 12 -63 25 -65 30 -3
4 23 18 56 31 84 31 103 59 107 152 4 64 -1 87 -32 179 -20 58 -36 108 -36
111 0 4 32 -10 72 -30 40 -20 147 -61 238 -91z m600 56 c106 -76 154 -120 80
-75 -25 15 -68 39 -97 52 -60 29 -88 22 -100 -24 -13 -46 -5 -216 22 -450 14
-123 25 -226 25 -230 0 -4 -20 52 -44 123 -104 309 -163 423 -247 484 l-39 28
35 6 c54 9 99 35 171 98 37 32 73 59 81 59 7 0 58 -32 113 -71z m-1097 -50
c-33 -89 -206 -737 -227 -852 -7 -42 -7 -66 1 -88 9 -24 9 -29 -3 -29 -8 0
-42 -11 -75 -25 -33 -14 -68 -23 -78 -20 -10 3 -25 21 -34 41 -31 65 -40 176
-33 434 6 261 -4 436 -28 494 -8 20 -14 36 -12 36 1 0 24 -7 50 -16 37 -13 72
-15 154 -11 141 6 230 34 280 87 20 21 37 39 38 39 1 1 -14 -40 -33 -90z
m1127 -34 c41 -24 80 -45 87 -45 22 0 22 -16 3 -79 -35 -110 -23 -192 45 -325
l43 -85 17 -228 c20 -278 37 -400 69 -518 14 -49 24 -90 23 -92 -2 -1 -47 19
-102 44 -75 35 -113 46 -151 47 l-51 0 -7 131 c-9 159 -27 355 -66 711 -28
256 -38 462 -23 477 14 15 42 5 113 -38z m447 -152 c-1 -344 82 -635 295
-1036 51 -97 41 -97 -28 -1 -102 143 -180 353 -249 670 -21 93 -53 231 -71
308 l-34 138 43 49 c23 26 42 48 43 49 0 0 1 -80 1 -177z m-2079 130 c14 -33
17 -96 23 -443 6 -413 9 -443 49 -507 28 -47 59 -51 140 -18 79 32 148 35 225
10 28 -9 145 -63 260 -121 148 -74 224 -108 258 -111 42 -5 49 -10 63 -39 24
-51 103 -116 202 -167 157 -81 222 -85 288 -17 l39 40 10 -52 c13 -68 40 -87
136 -99 115 -13 195 -11 208 5 16 20 4 59 -27 89 -30 28 -92 46 -162 47 -51 0
-62 6 -79 37 -22 42 -15 53 37 53 35 0 71 -11 142 -45 52 -25 103 -45 113 -45
29 0 31 27 9 103 -34 117 -51 230 -67 437 -8 107 -15 204 -15 215 1 11 20 -56
44 -150 84 -326 149 -450 366 -686 46 -50 75 -89 64 -86 -75 23 -311 34 -345
17 -23 -13 -24 -42 -3 -75 19 -29 20 -29 -37 -10 -24 8 -145 37 -269 65 -124
28 -324 76 -445 108 l-220 57 -106 101 c-170 162 -282 228 -445 264 -188 41
-269 35 -269 -20 0 -21 13 -31 85 -68 65 -32 77 -41 50 -37 -82 13 -120 44
-400 326 -237 239 -280 279 -312 284 -20 4 -42 4 -48 0 -21 -13 -3 -75 38
-129 60 -79 393 -390 519 -484 57 -43 61 -47 47 -66 -8 -11 -14 -31 -14 -44 0
-19 -6 -12 -27 28 -33 62 -55 80 -80 64 -20 -13 -23 -67 -9 -190 5 -41 5 -74
0 -77 -5 -3 -26 -8 -47 -12 -37 -7 -41 -5 -90 46 -89 92 -193 239 -212 299
-40 125 -108 297 -167 422 l-63 133 0 120 c0 136 25 259 55 275 10 5 69 23
131 40 131 36 194 62 268 114 29 20 57 36 63 36 5 0 17 -17 26 -37z m1991
-175 c12 -51 40 -174 62 -273 102 -468 185 -662 372 -862 78 -85 129 -178 131
-243 1 -40 -17 -70 -42 -70 -31 0 -112 63 -209 163 -178 182 -272 330 -333
522 -44 141 -92 349 -95 420 -1 33 -6 110 -10 170 -7 99 -6 116 12 155 20 45
68 110 82 110 4 0 17 -42 30 -92z m-2873 -223 c-9 -67 -16 -149 -16 -184 l0
-64 -102 6 c-57 4 -191 10 -298 14 -227 8 -218 13 70 42 160 17 210 25 230 39
36 27 65 107 97 272 l28 145 3 -75 c2 -41 -4 -129 -12 -195z m320 129 c-39
-190 -30 -252 72 -470 67 -143 139 -330 131 -338 -6 -7 -200 219 -241 280 -21
31 -45 79 -53 107 -38 127 1 350 83 475 8 12 16 21 19 19 2 -2 -3 -35 -11 -73z
m4053 -421 c25 -121 105 -372 162 -509 130 -312 226 -446 502 -700 81 -74 98
-94 95 -115 -5 -37 -75 -52 -218 -45 -115 5 -163 15 -525 113 -52 14 -122 25
-165 26 -97 2 -130 -16 -192 -108 -26 -39 -60 -82 -77 -97 -64 -57 -194 -74
-480 -63 -150 6 -188 10 -161 18 19 5 54 15 77 23 37 13 51 13 123 0 94 -18
224 -20 290 -5 91 21 137 84 204 278 105 301 255 949 313 1351 l18 125 6 -95
c4 -52 17 -141 28 -197z m-3847 97 c24 -16 146 -135 271 -263 124 -128 241
-244 261 -258 37 -24 47 -49 22 -49 -30 0 -202 147 -415 355 -144 140 -201
206 -201 232 0 19 12 16 62 -17z m1423 -4 c27 -20 23 -75 -16 -193 -30 -91
-32 -107 -31 -222 1 -68 -1 -121 -3 -119 -9 9 -45 353 -45 430 0 65 3 81 20
98 23 23 49 25 75 6z m-2867 -43 c78 -6 84 -8 94 -32 12 -33 30 -363 26 -496
l-3 -100 -181 270 c-233 349 -230 345 -213 356 16 10 159 12 277 2z m487 -18
c176 -8 341 -15 367 -15 46 0 47 0 71 -53 13 -29 66 -120 119 -202 52 -83 155
-244 228 -360 255 -402 364 -536 491 -599 l67 -33 -252 -7 c-869 -24 -996 -25
-996 -7 0 4 19 25 41 46 61 59 99 114 99 145 0 36 -57 88 -142 131 -35 17 -81
44 -103 59 -53 36 -98 50 -156 50 l-48 0 -61 90 -60 89 0 203 c0 196 -12 409
-26 456 -8 27 -48 26 361 7z m551 -32 c15 -5 776 -1141 791 -1179 7 -19 0 -18
-55 10 -133 68 -219 180 -604 791 -181 288 -228 365 -228 380 0 7 75 6 96 -2z
m-2858 -176 c5 -39 -28 -103 -95 -187 -33 -41 -75 -97 -93 -125 -31 -49 -32
-50 -25 -15 20 95 98 259 157 326 35 39 52 40 56 1z m1522 -91 c-16 -54 -30
-108 -30 -120 0 -32 26 -64 71 -86 37 -20 44 -31 39 -75 -4 -37 -41 -84 -84
-104 -65 -32 -77 -25 -21 12 63 41 69 67 21 95 -48 28 -71 67 -69 116 3 76 91
317 100 276 2 -9 -10 -60 -27 -114z m1650 -76 c123 -140 119 -134 178 -262 56
-120 96 -158 199 -187 44 -13 89 -20 100 -17 26 8 94 91 108 133 l12 34 12
-53 c17 -79 54 -150 99 -194 l41 -39 -37 0 c-34 0 -37 -3 -40 -29 -3 -26 8
-41 97 -125 56 -53 101 -103 101 -112 0 -21 -37 -28 -165 -30 -115 -1 -171 7
-179 27 -3 7 -107 168 -232 356 -305 461 -414 628 -410 628 2 0 54 -58 116
-130z m894 -21 c162 -34 276 -102 445 -265 l97 -93 125 -35 c174 -49 335 -88
549 -136 317 -69 350 -84 350 -153 0 -54 -43 -217 -57 -217 -7 0 -57 7 -110
16 -53 8 -121 14 -152 13 -46 -2 -69 5 -132 34 -143 68 -224 91 -329 91 -88 1
-100 -2 -160 -31 l-66 -32 -67 24 c-37 14 -131 41 -209 60 -110 28 -165 48
-248 91 -120 62 -211 129 -241 177 -47 77 -74 230 -49 278 16 28 80 25 185
-11 86 -29 135 -37 148 -24 14 14 -14 41 -70 68 -33 15 -63 38 -69 49 -5 12
-34 34 -64 49 -30 15 -68 35 -85 44 l-30 17 25 7 c34 9 108 2 214 -21z m1208
-353 c13 -3 51 -8 86 -11 79 -8 110 -21 128 -57 l14 -28 -112 7 c-141 7 -173
19 -181 65 -3 18 -3 46 0 61 l6 28 18 -30 c10 -17 29 -33 41 -35z m-4192 41
c0 -7 -9 -31 -20 -52 -11 -22 -18 -45 -15 -52 7 -19 68 -16 125 6 44 17 50 17
50 3 0 -9 21 -60 46 -114 52 -111 74 -184 74 -245 l0 -42 -47 -7 c-25 -4 -88
-4 -140 0 -72 5 -106 3 -149 -10 -55 -16 -184 -17 -200 -2 -4 4 -2 20 4 35 19
46 41 224 32 249 -11 29 -63 67 -122 89 -27 10 -48 21 -48 26 0 4 -3 14 -6 22
-4 12 0 14 15 10 20 -5 60 6 157 45 44 18 55 19 70 8 17 -13 17 -15 -9 -49
-15 -20 -27 -40 -27 -46 0 -31 92 -39 126 -10 19 16 18 48 -3 72 -17 18 -16
20 15 48 33 30 72 39 72 16z m930 -148 c-39 -17 -39 -18 -42 -79 l-3 -61 -172
-59 c-222 -75 -268 -84 -123 -22 232 98 290 154 290 284 0 71 10 74 51 12 l38
-58 -39 -17z m-601 33 c31 -104 64 -278 55 -293 -8 -13 -50 -11 -61 4 -6 6
-13 56 -16 110 -8 118 -22 169 -57 207 l-27 29 26 4 c59 9 58 10 80 -61z
m-1000 -49 c-68 -78 -157 -319 -144 -391 19 -103 104 -1 178 213 19 55 40 124
47 154 l13 54 65 -6 c36 -4 69 -10 73 -14 4 -5 15 -46 24 -93 20 -105 55 -229
67 -236 16 -10 8 -31 -15 -41 -14 -7 -35 -35 -50 -66 -14 -31 -35 -61 -46 -66
-11 -6 -49 -11 -86 -11 -86 0 -115 -16 -154 -84 -17 -30 -40 -60 -52 -66 -32
-18 -122 -24 -161 -11 -60 20 -73 43 -73 130 1 81 20 133 86 224 29 41 37 67
19 67 -14 0 116 176 172 232 55 57 85 65 37 11z m20 -119 c-34 -107 -86 -227
-113 -259 -17 -19 -17 -17 -13 41 6 73 60 213 114 294 49 72 52 50 12 -76z
m322 91 c27 -14 53 -33 56 -42 7 -17 -12 -198 -23 -226 -3 -10 -9 -17 -14 -17
-13 0 -40 75 -60 170 -11 52 -22 105 -25 118 -7 28 4 28 66 -3z m1442 -175
c65 -107 127 -204 138 -216 10 -11 19 -23 19 -27 0 -12 -59 -8 -95 7 -46 19
-77 72 -114 191 -44 144 -90 202 -129 163 -9 -9 -12 -4 -12 25 0 24 6 40 18
46 40 25 54 10 175 -189z m81 157 c28 -19 83 -51 122 -71 92 -48 121 -78 108
-110 -5 -14 -40 -57 -77 -96 -54 -57 -71 -69 -82 -60 -7 6 -58 84 -111 173
-54 89 -105 173 -113 186 l-15 24 58 -6 c44 -4 72 -15 110 -40z m-2719 8 c100
-21 132 -38 55 -30 -69 7 -182 -8 -254 -35 -36 -14 -79 -43 -122 -82 -102 -92
-176 -119 -224 -80 -21 17 -22 21 -10 57 24 73 143 164 242 185 58 12 216 5
313 -15z m6375 -11 c177 -36 239 -130 240 -360 0 -105 -14 -157 -39 -150 -42
14 -431 106 -445 106 -24 0 -25 12 -9 80 22 98 14 171 -30 264 -20 43 -37 81
-37 84 0 9 244 -9 320 -24z m-1867 -128 c69 -39 154 -69 316 -111 136 -35 218
-62 210 -69 -2 -2 -25 -20 -52 -40 l-47 -36 -107 0 c-144 0 -168 12 -257 130
-37 49 -98 117 -134 151 -59 55 -62 59 -22 33 25 -17 66 -43 93 -58z m-1983
15 c10 -20 28 -73 40 -119 12 -45 33 -99 46 -118 13 -19 24 -37 24 -40 0 -11
-77 36 -102 63 -49 51 -76 154 -63 234 6 34 9 38 22 28 8 -7 23 -29 33 -48z
m1867 8 c29 -22 81 -75 114 -117 110 -142 122 -154 163 -173 31 -14 65 -19
145 -19 84 0 103 -3 93 -12 -34 -34 -294 -15 -467 34 l-80 22 64 8 c45 5 71
14 85 28 20 20 20 21 2 55 -10 19 -54 64 -98 101 -70 59 -98 90 -98 108 0 15
28 2 77 -35z m1060 -218 c27 -11 74 -30 105 -43 l57 -24 -90 -65 c-183 -131
-211 -149 -233 -149 -38 0 -49 24 -48 105 2 65 -1 76 -19 85 -31 17 -81 -16
-97 -65 -22 -67 -2 -121 79 -212 45 -50 69 -85 67 -97 -4 -29 -57 -39 -140
-26 -146 22 -219 88 -226 204 -2 34 1 80 7 102 9 35 16 42 48 52 21 6 76 34
123 62 147 87 268 111 367 71z m916 -167 c103 -25 185 -50 181 -55 -3 -5 -58
-9 -123 -9 -110 0 -235 16 -322 42 l-36 10 15 38 c19 43 -14 46 285 -26z"/>
</g>
</svg>
