<?xml version="1.0" standalone="no"?>
<!DOCTYPE svg PUBLIC "-//W3C//DTD SVG 20010904//EN"
 "http://www.w3.org/TR/2001/REC-SVG-20010904/DTD/svg10.dtd">
<svg version="1.0" xmlns="http://www.w3.org/2000/svg"
 width="379.000000pt" height="98.000000pt" viewBox="0 0 379.000000 98.000000"
 preserveAspectRatio="xMidYMid meet">

<g transform="translate(0.000000,98.000000) scale(0.100000,-0.100000)"
fill="#000000" stroke="none">
<path d="M813 948 c-60 -25 -71 -33 -64 -46 5 -9 22 -16 38 -17 l28 0 0 -305
0 -305 -30 -5 c-18 -3 -31 -12 -33 -23 -3 -15 8 -17 128 -17 120 0 131 2 128
18 -2 9 -14 19 -28 20 -51 8 -50 2 -50 368 l0 344 -22 -1 c-13 0 -56 -14 -95
-31z"/>
<path d="M69 920 l31 -43 0 -287 c0 -265 -1 -288 -18 -303 -10 -10 -33 -17
-50 -17 -25 0 -32 -4 -32 -20 0 -19 7 -20 223 -20 239 1 287 7 346 45 114 76
113 250 -1 303 -21 9 -38 20 -38 23 0 4 11 14 25 23 88 58 85 212 -5 276 -56
40 -116 50 -319 57 l-193 6 31 -43z m316 -31 c22 -6 54 -26 72 -46 28 -29 33
-42 33 -83 0 -92 -63 -134 -195 -128 l-70 3 -3 127 c-2 114 -1 127 15 131 34
9 108 7 148 -4z m17 -329 c84 -24 128 -99 103 -174 -25 -72 -69 -96 -178 -96
-114 0 -107 -9 -107 146 l0 134 73 0 c39 0 89 -5 109 -10z"/>
<path d="M1205 711 c-129 -58 -185 -248 -111 -375 104 -178 343 -157 415 37
53 145 0 289 -126 342 -48 20 -130 18 -178 -4z m126 -47 c91 -47 117 -302 38
-369 -77 -64 -167 11 -188 157 -15 108 6 185 57 212 35 20 56 20 93 0z"/>
<path d="M1742 709 c-104 -52 -130 -185 -53 -272 l29 -32 -29 -32 c-40 -47
-46 -78 -21 -113 l21 -28 -26 -23 c-14 -13 -34 -42 -45 -63 -19 -38 -20 -39
-1 -65 31 -42 105 -74 187 -79 91 -5 171 23 235 83 38 36 44 48 49 93 9 98
-37 130 -201 138 -125 6 -147 11 -147 28 0 27 30 40 87 37 42 -2 66 3 106 23
75 37 92 66 92 151 0 47 4 74 13 81 8 5 12 21 10 35 -3 21 -10 25 -53 30 -27
3 -63 11 -78 17 -46 19 -127 15 -175 -9z m112 -29 c42 -15 66 -66 66 -136 0
-77 -24 -114 -75 -114 -62 0 -108 95 -90 183 10 44 25 60 72 76 1 1 13 -3 27
-9z m49 -465 c118 -8 142 -19 128 -58 -21 -57 -131 -89 -232 -68 -98 21 -120
53 -78 113 17 23 27 28 48 24 14 -3 74 -8 134 -11z"/>
<path d="M2292 709 c-105 -52 -130 -184 -52 -273 l30 -33 -21 -19 c-26 -23
-49 -67 -49 -92 0 -10 9 -27 20 -37 20 -19 20 -19 -9 -49 -16 -17 -36 -46 -46
-65 -16 -32 -16 -35 2 -60 31 -42 105 -74 187 -79 91 -5 171 23 235 83 38 36
44 48 49 93 9 98 -37 130 -201 138 -125 6 -147 11 -147 28 0 27 30 40 87 37
42 -2 66 3 106 23 75 37 92 66 92 151 0 47 4 74 13 81 8 5 12 21 10 35 -3 21
-10 25 -53 30 -27 3 -63 11 -78 17 -46 19 -127 15 -175 -9z m112 -29 c42 -15
66 -66 66 -136 0 -77 -24 -114 -75 -114 -62 0 -108 95 -90 183 10 44 25 60 72
76 1 1 13 -3 27 -9z m49 -465 c118 -8 142 -19 128 -58 -21 -57 -131 -89 -232
-68 -98 21 -120 53 -78 113 17 23 27 28 48 24 14 -3 74 -8 134 -11z"/>
<path d="M2748 702 c-48 -19 -68 -32 -68 -44 0 -14 8 -18 34 -18 30 0 34 -4
40 -31 3 -17 6 -94 6 -170 0 -149 -6 -169 -56 -169 -17 0 -24 -5 -24 -20 0
-19 7 -20 130 -20 123 0 130 1 130 20 0 15 -7 20 -24 20 -46 0 -56 31 -56 175
0 128 0 131 28 164 28 34 28 34 59 17 39 -20 67 -21 82 -2 6 7 28 13 49 12
l37 -1 3 -169 c3 -179 -1 -196 -44 -196 -17 0 -24 -6 -24 -20 0 -19 7 -20 130
-20 123 0 130 1 130 20 0 15 -7 20 -24 20 -49 0 -56 20 -56 168 0 119 3 141
20 170 22 35 36 39 66 17 23 -18 66 -19 82 -3 21 21 15 75 -10 92 -42 29 -94
17 -135 -32 l-23 -27 0 38 c0 46 -16 48 -112 10 l-68 -26 -21 26 c-31 40 -78
37 -129 -9 l-40 -36 0 36 c0 31 -3 36 -22 35 -13 0 -53 -12 -90 -27z"/>
<path d="M3533 714 c-18 -9 -42 -31 -53 -49 -24 -39 -27 -121 -5 -152 9 -12
58 -47 110 -78 52 -30 99 -64 105 -75 27 -50 -3 -90 -68 -90 -52 0 -95 35
-115 93 -7 23 -21 43 -30 45 -15 3 -17 -8 -17 -91 l0 -94 48 0 c26 0 74 -2
107 -4 49 -3 68 1 103 21 54 30 72 63 72 130 0 43 -5 55 -32 85 -18 19 -69 53
-113 76 -87 45 -105 61 -105 94 0 54 87 75 134 33 14 -13 32 -41 39 -63 8 -22
21 -41 30 -43 15 -3 17 8 17 87 0 83 -2 91 -19 91 -11 0 -22 -4 -26 -9 -3 -6
-18 -6 -38 0 -48 14 -108 11 -144 -7z"/>
</g>
</svg>
